<mxfile host="app.diagrams.net" modified="2023-10-22T19:19:39.376Z" agent="Mozilla/5.0 (Macintosh; Intel Mac OS X 10.15; rv:109.0) Gecko/20100101 Firefox/118.0" etag="nGKxMOstG8tQYHK5kqKN" version="22.0.6" type="github">
  <diagram name="Side-1" id="0Zkaa5LIuvr8AhjXDH1g">
    <mxGraphModel dx="794" dy="445" grid="1" gridSize="10" guides="1" tooltips="1" connect="1" arrows="1" fold="1" page="1" pageScale="1" pageWidth="827" pageHeight="1169" math="0" shadow="0">
      <root>
        <mxCell id="0" />
        <mxCell id="1" parent="0" />
        <mxCell id="g6-jFwndU6FCUU19JQ0p-2" value="&lt;b&gt;BDD Drinks Machine&lt;br&gt;&lt;/b&gt;" style="shape=umlFrame;whiteSpace=wrap;html=1;pointerEvents=0;width=140;height=40;" parent="1" vertex="1">
          <mxGeometry x="80" y="500" width="840" height="720" as="geometry" />
        </mxCell>
        <mxCell id="g6-jFwndU6FCUU19JQ0p-3" style="edgeStyle=orthogonalEdgeStyle;rounded=0;orthogonalLoop=1;jettySize=auto;html=1;exitX=0.5;exitY=0;exitDx=0;exitDy=0;entryX=0;entryY=0.25;entryDx=0;entryDy=0;endSize=20;endArrow=diamondThin;endFill=1;" parent="1" source="g6-jFwndU6FCUU19JQ0p-4" target="g6-jFwndU6FCUU19JQ0p-11" edge="1">
          <mxGeometry relative="1" as="geometry">
            <mxPoint x="400" y="705" as="targetPoint" />
          </mxGeometry>
        </mxCell>
        <mxCell id="g6-jFwndU6FCUU19JQ0p-4" value="&lt;p style=&quot;margin:0px;margin-top:4px;text-align:center;&quot;&gt;«block»&lt;br&gt;&lt;b&gt;screen : RPi Touch Screen&lt;/b&gt;&lt;br&gt;&lt;/p&gt;&lt;hr size=&quot;1&quot;&gt;&lt;div align=&quot;center&quot;&gt;&lt;i&gt;&lt;font style=&quot;font-size: 10px;&quot;&gt;ports&lt;/font&gt;&lt;/i&gt; &lt;br&gt;&lt;/div&gt;&lt;div&gt;&amp;nbsp; in power: Micro USB (5V)&lt;br&gt;&lt;div&gt;&amp;nbsp; out powerOut: 5V&lt;/div&gt;&amp;nbsp; out groundOut: 0V&amp;nbsp; &lt;/div&gt;&lt;div&gt;&amp;nbsp; in touchInput: Touch&lt;br&gt;&lt;/div&gt;&lt;div&gt;&amp;nbsp;&amp;nbsp;&lt;span style=&quot;background-color: initial;&quot;&gt;out display: Light&lt;/span&gt;&lt;/div&gt;&lt;div&gt;&amp;nbsp; inout rpi: 15-pin display ribbon cable&lt;/div&gt;&lt;div&gt;&lt;br&gt;&lt;/div&gt;&lt;p style=&quot;margin:0px;margin-left:4px;&quot;&gt;&amp;nbsp;&lt;br&gt;&lt;/p&gt;" style="verticalAlign=top;align=left;overflow=fill;fontSize=12;fontFamily=Helvetica;html=1;whiteSpace=wrap;" parent="1" vertex="1">
          <mxGeometry x="110" y="800" width="210" height="170" as="geometry" />
        </mxCell>
        <mxCell id="g6-jFwndU6FCUU19JQ0p-5" style="edgeStyle=orthogonalEdgeStyle;rounded=0;orthogonalLoop=1;jettySize=auto;html=1;exitX=0.5;exitY=0;exitDx=0;exitDy=0;endArrow=diamondThin;endFill=1;endSize=20;entryX=0;entryY=0.75;entryDx=0;entryDy=0;" parent="1" source="g6-jFwndU6FCUU19JQ0p-6" target="g6-jFwndU6FCUU19JQ0p-11" edge="1">
          <mxGeometry relative="1" as="geometry">
            <mxPoint x="400" y="738" as="targetPoint" />
          </mxGeometry>
        </mxCell>
        <mxCell id="g6-jFwndU6FCUU19JQ0p-6" value="&lt;p style=&quot;margin:0px;margin-top:4px;text-align:center;&quot;&gt;«block»&lt;br&gt;&lt;b&gt;rpi: Raspberry Pi 3 B&lt;/b&gt;&lt;br&gt;&lt;/p&gt;&lt;hr size=&quot;1&quot;&gt;&lt;div align=&quot;center&quot;&gt;&lt;i&gt;&lt;font style=&quot;font-size: 10px;&quot;&gt;ports&lt;/font&gt;&lt;/i&gt;&lt;/div&gt;&lt;div&gt;&amp;nbsp; in power: 5V&lt;/div&gt;&lt;div&gt;&amp;nbsp; in ground: 0V&lt;br&gt;&lt;/div&gt;&lt;div&gt;&amp;nbsp; out psocUartTX: Digital signal (3.3V)&lt;br&gt;&lt;/div&gt;&lt;div&gt;&amp;nbsp; in psocUartRX: Digital signal (3.3V)&lt;/div&gt;&lt;div&gt;&amp;nbsp; inout screen: 15-pin display ribbon cable&lt;br&gt;&lt;/div&gt;&lt;div&gt;&amp;nbsp; &lt;br&gt;&lt;/div&gt;&lt;p style=&quot;margin:0px;margin-left:4px;&quot;&gt;&amp;nbsp;&lt;br&gt;&lt;/p&gt;" style="verticalAlign=top;align=left;overflow=fill;fontSize=12;fontFamily=Helvetica;html=1;whiteSpace=wrap;" parent="1" vertex="1">
          <mxGeometry x="240" y="1039" width="230" height="151" as="geometry" />
        </mxCell>
        <mxCell id="g6-jFwndU6FCUU19JQ0p-7" style="edgeStyle=orthogonalEdgeStyle;rounded=0;orthogonalLoop=1;jettySize=auto;html=1;exitX=0.5;exitY=0;exitDx=0;exitDy=0;entryX=0.5;entryY=1;entryDx=0;entryDy=0;endArrow=diamondThin;endFill=1;endSize=20;" parent="1" source="g6-jFwndU6FCUU19JQ0p-8" target="g6-jFwndU6FCUU19JQ0p-11" edge="1">
          <mxGeometry relative="1" as="geometry">
            <mxPoint x="500" y="770" as="targetPoint" />
          </mxGeometry>
        </mxCell>
        <mxCell id="g6-jFwndU6FCUU19JQ0p-8" value="&lt;p style=&quot;margin:0px;margin-top:4px;text-align:center;&quot;&gt;«block»&lt;br&gt;&lt;b&gt;psoc : PSoC-5LP&lt;/b&gt;&lt;br&gt;&lt;/p&gt;&lt;hr size=&quot;1&quot;&gt;&lt;div align=&quot;center&quot;&gt;&lt;i&gt;&lt;font style=&quot;font-size: 10px;&quot;&gt;ports&lt;/font&gt;&lt;/i&gt;&lt;/div&gt;&lt;div&gt;&amp;nbsp; in power: 5V&lt;div&gt;&amp;nbsp; in ground: 0V&lt;/div&gt;&lt;/div&gt;&lt;div&gt;&amp;nbsp; in rpiUartRX: Digital signal (3.3V)&lt;/div&gt;&lt;div&gt;&amp;nbsp; out rpiUartTX: Digital signal (3.3V)&lt;/div&gt;&lt;p style=&quot;margin:0px;margin-left:4px;&quot;&gt;&amp;nbsp;in weight[4]: Analog (0-5V)&lt;/p&gt;&lt;p style=&quot;margin:0px;margin-left:4px;&quot;&gt;&amp;nbsp;in weightAdcRef: Voltage ref &lt;br&gt;&lt;/p&gt;&lt;p style=&quot;margin:0px;margin-left:4px;&quot;&gt;&amp;nbsp;out pump[4]: PWM (0-5V)&lt;br&gt;&lt;/p&gt;" style="verticalAlign=top;align=left;overflow=fill;fontSize=12;fontFamily=Helvetica;html=1;whiteSpace=wrap;" parent="1" vertex="1">
          <mxGeometry x="400" y="839" width="200" height="180" as="geometry" />
        </mxCell>
        <mxCell id="g6-jFwndU6FCUU19JQ0p-9" style="edgeStyle=orthogonalEdgeStyle;rounded=0;orthogonalLoop=1;jettySize=auto;html=1;exitX=0.5;exitY=0;exitDx=0;exitDy=0;entryX=1;entryY=0.75;entryDx=0;entryDy=0;endArrow=diamondThin;endFill=1;endSize=20;" parent="1" source="g6-jFwndU6FCUU19JQ0p-10" target="g6-jFwndU6FCUU19JQ0p-11" edge="1">
          <mxGeometry relative="1" as="geometry">
            <mxPoint x="600" y="737.5" as="targetPoint" />
          </mxGeometry>
        </mxCell>
        <mxCell id="g6-jFwndU6FCUU19JQ0p-10" value="&lt;p style=&quot;margin:0px;margin-top:4px;text-align:center;&quot;&gt;«block»&lt;br&gt;&lt;b&gt;weight : Weight Unit&lt;/b&gt;&lt;br&gt;&lt;/p&gt;&lt;hr size=&quot;1&quot;&gt;&lt;p style=&quot;margin:0px;margin-left:4px;&quot; align=&quot;center&quot;&gt;&lt;i&gt;&lt;font style=&quot;font-size: 10px;&quot;&gt;ports&lt;/font&gt;&lt;/i&gt;&lt;/p&gt;&lt;p style=&quot;margin:0px;margin-left:4px;&quot;&gt;&amp;nbsp;in power: 9V&lt;/p&gt;&lt;p style=&quot;margin:0px;margin-left:4px;&quot;&gt;&amp;nbsp;in ground: 0V&lt;br&gt;&lt;/p&gt;&lt;p style=&quot;margin:0px;margin-left:4px;&quot;&gt;&amp;nbsp;out adcRef: Voltage ref&lt;br&gt;&lt;/p&gt;&lt;p style=&quot;margin:0px;margin-left:4px;&quot;&gt;&amp;nbsp;out weight: Analog (0-5V)&lt;/p&gt;&lt;p style=&quot;margin:0px;margin-left:4px;&quot;&gt;&amp;nbsp;in fluidWeight: Mass&lt;br&gt;&lt;/p&gt;&lt;p style=&quot;margin:0px;margin-left:4px;&quot;&gt;&lt;br&gt;&lt;/p&gt;&lt;p style=&quot;margin:0px;margin-left:4px;&quot;&gt;&amp;nbsp;&lt;br&gt;&lt;/p&gt;" style="verticalAlign=top;align=left;overflow=fill;fontSize=12;fontFamily=Helvetica;html=1;whiteSpace=wrap;" parent="1" vertex="1">
          <mxGeometry x="540" y="1039" width="200" height="151" as="geometry" />
        </mxCell>
        <mxCell id="g6-jFwndU6FCUU19JQ0p-11" value="&lt;p style=&quot;margin:0px;margin-top:4px;text-align:center;&quot;&gt;«block»&lt;/p&gt;&lt;p style=&quot;margin:0px;margin-top:4px;text-align:center;&quot;&gt;&lt;b&gt;&amp;nbsp;: &lt;/b&gt;&lt;b&gt;Drinks Machine&lt;/b&gt;&lt;/p&gt;&lt;hr&gt;&lt;p style=&quot;font-size:10px;margin:0px;text-align:center;&quot;&gt;&lt;i&gt;ports&lt;/i&gt;&lt;/p&gt;&lt;p style=&quot;margin:0px;margin-left:4px;&quot; align=&quot;left&quot;&gt;&amp;nbsp;in weightPower: 9V&lt;/p&gt;&lt;p style=&quot;margin:0px;margin-left:4px;&quot; align=&quot;left&quot;&gt;&amp;nbsp;in norminalPower: 5V&lt;/p&gt;&lt;p style=&quot;margin:0px;margin-left:4px;&quot; align=&quot;left&quot;&gt;&amp;nbsp;in ground: 0V&lt;/p&gt;&lt;p style=&quot;margin:0px;margin-left:4px;&quot; align=&quot;left&quot;&gt;&amp;nbsp;in touchScreenInput: Touch &lt;br&gt;&lt;/p&gt;&lt;p style=&quot;margin:0px;margin-left:4px;&quot; align=&quot;left&quot;&gt;&amp;nbsp;out touchScreenDisplay: Light&lt;/p&gt;&lt;p style=&quot;margin:0px;margin-left:4px;&quot; align=&quot;left&quot;&gt;&amp;nbsp;out drinkFluid: Liquid&lt;/p&gt;&lt;p style=&quot;margin:0px;margin-left:4px;&quot; align=&quot;left&quot;&gt;&amp;nbsp;in fluidWeight: Mass&lt;/p&gt;&lt;p style=&quot;margin:0px;margin-left:8px;text-align:left;&quot;&gt;&lt;/p&gt;&lt;hr&gt;&lt;p style=&quot;font-size:10px;margin:0px;text-align:center;&quot;&gt;&lt;i&gt;parts&lt;/i&gt;&lt;/p&gt;&lt;p style=&quot;margin:0px;margin-left:8px;text-align:left;&quot;&gt;screen: RPi Touch Screen &lt;br&gt;&lt;/p&gt;&lt;p style=&quot;margin:0px;margin-left:8px;text-align:left;&quot;&gt;rpi: Raspberry Pi 3 B&lt;/p&gt;&lt;p style=&quot;margin:0px;margin-left:8px;text-align:left;&quot;&gt;psoc: PSoC-5LP&lt;/p&gt;&lt;p style=&quot;margin:0px;margin-left:8px;text-align:left;&quot;&gt;pump[4]: Pump Unit&lt;/p&gt;&lt;p style=&quot;margin:0px;margin-left:8px;text-align:left;&quot;&gt;weight[4]: Weight Unit&lt;br&gt;&lt;/p&gt;&lt;p style=&quot;margin:0px;margin-left:8px;text-align:left;&quot;&gt;&lt;br&gt;&lt;/p&gt;&lt;p style=&quot;margin:0px;margin-left:8px;text-align:left;&quot;&gt;&lt;br&gt;&lt;/p&gt;&lt;p style=&quot;margin:0px;margin-left:8px;text-align:left;&quot;&gt;&lt;br&gt;&lt;/p&gt;&lt;p style=&quot;margin:0px;margin-left:8px;text-align:left;&quot;&gt;&lt;br&gt;&lt;/p&gt;" style="shape=rect;html=1;overflow=fill;whiteSpace=wrap;" parent="1" vertex="1">
          <mxGeometry x="400" y="510" width="200" height="290" as="geometry" />
        </mxCell>
        <mxCell id="g6-jFwndU6FCUU19JQ0p-12" value="&lt;p style=&quot;margin:0px;margin-top:4px;text-align:center;&quot;&gt;«block»&lt;br&gt;&lt;b&gt;pump: Pump Unit&lt;/b&gt;&lt;br&gt;&lt;/p&gt;&lt;hr size=&quot;1&quot;&gt;&lt;div align=&quot;center&quot;&gt;&lt;i&gt;&lt;font style=&quot;font-size: 10px;&quot;&gt;ports&lt;/font&gt;&lt;/i&gt; &lt;br&gt;&lt;/div&gt;&lt;p style=&quot;margin:0px;margin-left:4px;&quot;&gt;&amp;nbsp;in power: 5V&lt;br&gt;&lt;/p&gt;&lt;p style=&quot;margin:0px;margin-left:4px;&quot;&gt;&amp;nbsp;in ground: 0V&lt;/p&gt;&lt;p style=&quot;margin:0px;margin-left:4px;&quot;&gt;&amp;nbsp;in control: PWM (0-5V)&lt;/p&gt;&lt;p style=&quot;margin:0px;margin-left:4px;&quot;&gt;&amp;nbsp;out fluid: Liquid&lt;/p&gt;&lt;p style=&quot;margin:0px;margin-left:4px;&quot;&gt;&amp;nbsp;&lt;br&gt;&lt;/p&gt;&lt;p style=&quot;margin:0px;margin-left:4px;&quot;&gt;&amp;nbsp;&lt;br&gt;&lt;/p&gt;&lt;p style=&quot;margin:0px;margin-left:4px;&quot;&gt;&lt;br&gt;&lt;/p&gt;" style="verticalAlign=top;align=left;overflow=fill;fontSize=12;fontFamily=Helvetica;html=1;whiteSpace=wrap;" parent="1" vertex="1">
          <mxGeometry x="690" y="800" width="200" height="130" as="geometry" />
        </mxCell>
        <mxCell id="g6-jFwndU6FCUU19JQ0p-13" style="edgeStyle=orthogonalEdgeStyle;rounded=0;orthogonalLoop=1;jettySize=auto;html=1;exitX=0.5;exitY=0;exitDx=0;exitDy=0;entryX=1;entryY=0.25;entryDx=0;entryDy=0;endSize=20;endArrow=diamondThin;endFill=1;" parent="1" source="g6-jFwndU6FCUU19JQ0p-12" target="g6-jFwndU6FCUU19JQ0p-11" edge="1">
          <mxGeometry relative="1" as="geometry">
            <mxPoint x="870" y="547" as="targetPoint" />
            <mxPoint x="684" y="764" as="sourcePoint" />
          </mxGeometry>
        </mxCell>
        <mxCell id="_ADm5sP4qU8iRWEGnTbN-1" value="&lt;b&gt;IBD Drinks Machine &lt;br&gt;&lt;/b&gt;" style="shape=umlFrame;whiteSpace=wrap;html=1;pointerEvents=0;recursiveResize=0;container=1;collapsible=0;width=160;" vertex="1" parent="1">
          <mxGeometry x="1099" y="500" width="960" height="676" as="geometry" />
        </mxCell>
        <mxCell id="_ADm5sP4qU8iRWEGnTbN-2" value="&lt;b&gt;psoc : PSoC-5LP&lt;br&gt;&lt;/b&gt;" style="rounded=0;whiteSpace=wrap;html=1;" vertex="1" parent="_ADm5sP4qU8iRWEGnTbN-1">
          <mxGeometry x="585" y="150" width="162" height="103" as="geometry" />
        </mxCell>
        <mxCell id="_ADm5sP4qU8iRWEGnTbN-3" value="&lt;b&gt;rpi : Raspberry Pi 3 B&lt;br&gt;&lt;/b&gt;" style="rounded=0;whiteSpace=wrap;html=1;" vertex="1" parent="_ADm5sP4qU8iRWEGnTbN-1">
          <mxGeometry x="462" y="340" width="214" height="120" as="geometry" />
        </mxCell>
        <mxCell id="_ADm5sP4qU8iRWEGnTbN-4" value="&lt;div&gt;&lt;b&gt;screen:&amp;nbsp;&lt;/b&gt;&lt;/div&gt;&lt;div&gt;&lt;b&gt;RPi&amp;nbsp;&lt;/b&gt;&lt;/div&gt;&lt;div&gt;&lt;b&gt;Touch Screen&lt;/b&gt;&lt;/div&gt;" style="rounded=0;whiteSpace=wrap;html=1;" vertex="1" parent="_ADm5sP4qU8iRWEGnTbN-1">
          <mxGeometry x="92" y="340" width="160" height="120" as="geometry" />
        </mxCell>
        <mxCell id="_ADm5sP4qU8iRWEGnTbN-5" value="&lt;b&gt;motor : Motor Circuit&lt;/b&gt;" style="rounded=0;whiteSpace=wrap;html=1;" vertex="1" parent="_ADm5sP4qU8iRWEGnTbN-1">
          <mxGeometry x="588" y="541" width="162" height="82" as="geometry" />
        </mxCell>
        <mxCell id="_ADm5sP4qU8iRWEGnTbN-6" value="" style="html=1;shape=mxgraph.sysml.port;sysMLPortType=flowN;direction=west;" vertex="1" parent="_ADm5sP4qU8iRWEGnTbN-1">
          <mxGeometry x="708" y="141" width="20" height="20" as="geometry" />
        </mxCell>
        <mxCell id="_ADm5sP4qU8iRWEGnTbN-7" value="" style="html=1;shape=mxgraph.sysml.port;sysMLPortType=flowN;direction=east;" vertex="1" parent="_ADm5sP4qU8iRWEGnTbN-1">
          <mxGeometry x="607" y="-9" width="20" height="20" as="geometry" />
        </mxCell>
        <mxCell id="_ADm5sP4qU8iRWEGnTbN-8" value="" style="html=1;shape=mxgraph.sysml.port;sysMLPortType=flowN;direction=east;" vertex="1" parent="_ADm5sP4qU8iRWEGnTbN-1">
          <mxGeometry x="607" y="245" width="20" height="20" as="geometry" />
        </mxCell>
        <mxCell id="_ADm5sP4qU8iRWEGnTbN-9" value="" style="html=1;shape=mxgraph.sysml.port;sysMLPortType=flowN;direction=east;" vertex="1" parent="_ADm5sP4qU8iRWEGnTbN-1">
          <mxGeometry x="544" y="332" width="20" height="20" as="geometry" />
        </mxCell>
        <mxCell id="_ADm5sP4qU8iRWEGnTbN-10" value="" style="html=1;shape=mxgraph.sysml.port;sysMLPortType=flowN;direction=west;" vertex="1" parent="_ADm5sP4qU8iRWEGnTbN-1">
          <mxGeometry x="655" y="332" width="20" height="20" as="geometry" />
        </mxCell>
        <mxCell id="_ADm5sP4qU8iRWEGnTbN-11" value="" style="html=1;shape=mxgraph.sysml.port;sysMLPortType=flowN;direction=west;" vertex="1" parent="_ADm5sP4qU8iRWEGnTbN-1">
          <mxGeometry x="718" y="242" width="20" height="20" as="geometry" />
        </mxCell>
        <mxCell id="_ADm5sP4qU8iRWEGnTbN-12" value="" style="endArrow=none;html=1;rounded=0;exitX=0.5;exitY=1;exitDx=0;exitDy=0;exitPerimeter=0;entryX=0.5;entryY=0;entryDx=0;entryDy=0;entryPerimeter=0;" edge="1" parent="_ADm5sP4qU8iRWEGnTbN-1" source="_ADm5sP4qU8iRWEGnTbN-8" target="_ADm5sP4qU8iRWEGnTbN-9">
          <mxGeometry width="50" height="50" relative="1" as="geometry">
            <mxPoint x="222" y="21" as="sourcePoint" />
            <mxPoint x="220" y="152" as="targetPoint" />
          </mxGeometry>
        </mxCell>
        <mxCell id="_ADm5sP4qU8iRWEGnTbN-13" value="keypadCtrlTX : UART" style="edgeLabel;html=1;align=center;verticalAlign=middle;resizable=0;points=[];" connectable="0" vertex="1" parent="_ADm5sP4qU8iRWEGnTbN-12">
          <mxGeometry x="0.7251" relative="1" as="geometry">
            <mxPoint x="-1" y="-10" as="offset" />
          </mxGeometry>
        </mxCell>
        <mxCell id="_ADm5sP4qU8iRWEGnTbN-14" value="ctrlRX : UART" style="edgeLabel;html=1;align=center;verticalAlign=middle;resizable=0;points=[];" connectable="0" vertex="1" parent="_ADm5sP4qU8iRWEGnTbN-12">
          <mxGeometry x="-0.5978" y="4" relative="1" as="geometry">
            <mxPoint x="-4" as="offset" />
          </mxGeometry>
        </mxCell>
        <mxCell id="_ADm5sP4qU8iRWEGnTbN-15" value="" style="endArrow=none;html=1;rounded=0;exitX=0.5;exitY=0;exitDx=0;exitDy=0;exitPerimeter=0;entryX=0.5;entryY=1;entryDx=0;entryDy=0;entryPerimeter=0;" edge="1" parent="_ADm5sP4qU8iRWEGnTbN-1" source="_ADm5sP4qU8iRWEGnTbN-11" target="_ADm5sP4qU8iRWEGnTbN-10">
          <mxGeometry width="50" height="50" relative="1" as="geometry">
            <mxPoint x="815" y="139" as="sourcePoint" />
            <mxPoint x="813" y="270" as="targetPoint" />
          </mxGeometry>
        </mxCell>
        <mxCell id="_ADm5sP4qU8iRWEGnTbN-16" value="keypadCtrlRX : UART" style="edgeLabel;html=1;align=center;verticalAlign=middle;resizable=0;points=[];" connectable="0" vertex="1" parent="_ADm5sP4qU8iRWEGnTbN-15">
          <mxGeometry x="0.7251" relative="1" as="geometry">
            <mxPoint x="16" y="-8" as="offset" />
          </mxGeometry>
        </mxCell>
        <mxCell id="_ADm5sP4qU8iRWEGnTbN-17" value="ctrlTX : UART" style="edgeLabel;html=1;align=center;verticalAlign=middle;resizable=0;points=[];" connectable="0" vertex="1" parent="_ADm5sP4qU8iRWEGnTbN-15">
          <mxGeometry x="-0.5547" relative="1" as="geometry">
            <mxPoint as="offset" />
          </mxGeometry>
        </mxCell>
        <mxCell id="_ADm5sP4qU8iRWEGnTbN-18" value="keypadActivity : Light" style="endArrow=none;html=1;rounded=0;exitX=0.5;exitY=1;exitDx=0;exitDy=0;exitPerimeter=0;" edge="1" parent="_ADm5sP4qU8iRWEGnTbN-1" source="_ADm5sP4qU8iRWEGnTbN-7" target="_ADm5sP4qU8iRWEGnTbN-20">
          <mxGeometry x="-0.7727" width="50" height="50" relative="1" as="geometry">
            <mxPoint x="-695" y="536" as="sourcePoint" />
            <mxPoint x="-697" y="667" as="targetPoint" />
            <mxPoint as="offset" />
          </mxGeometry>
        </mxCell>
        <mxCell id="_ADm5sP4qU8iRWEGnTbN-19" value="keypadActivityLED : Light" style="edgeLabel;html=1;align=center;verticalAlign=middle;resizable=0;points=[];" connectable="0" vertex="1" parent="_ADm5sP4qU8iRWEGnTbN-18">
          <mxGeometry x="0.3411" relative="1" as="geometry">
            <mxPoint y="32" as="offset" />
          </mxGeometry>
        </mxCell>
        <mxCell id="_ADm5sP4qU8iRWEGnTbN-20" value="" style="html=1;shape=mxgraph.sysml.port;sysMLPortType=flowN;direction=east;" vertex="1" parent="_ADm5sP4qU8iRWEGnTbN-1">
          <mxGeometry x="609" y="141" width="20" height="20" as="geometry" />
        </mxCell>
        <mxCell id="_ADm5sP4qU8iRWEGnTbN-21" value="" style="html=1;shape=mxgraph.sysml.port;sysMLPortType=flowN;direction=west;" vertex="1" parent="_ADm5sP4qU8iRWEGnTbN-1">
          <mxGeometry x="596" y="438" width="20" height="20" as="geometry" />
        </mxCell>
        <mxCell id="_ADm5sP4qU8iRWEGnTbN-22" value="" style="html=1;shape=mxgraph.sysml.port;sysMLPortType=flowN;direction=west;" vertex="1" parent="_ADm5sP4qU8iRWEGnTbN-1">
          <mxGeometry x="659" y="529" width="20" height="20" as="geometry" />
        </mxCell>
        <mxCell id="_ADm5sP4qU8iRWEGnTbN-23" value="" style="endArrow=none;html=1;rounded=0;exitX=0.5;exitY=0;exitDx=0;exitDy=0;exitPerimeter=0;entryX=0.5;entryY=1;entryDx=0;entryDy=0;entryPerimeter=0;" edge="1" parent="_ADm5sP4qU8iRWEGnTbN-1" source="_ADm5sP4qU8iRWEGnTbN-21" target="_ADm5sP4qU8iRWEGnTbN-22">
          <mxGeometry width="50" height="50" relative="1" as="geometry">
            <mxPoint x="724" y="454" as="sourcePoint" />
            <mxPoint x="721" y="523" as="targetPoint" />
          </mxGeometry>
        </mxCell>
        <mxCell id="_ADm5sP4qU8iRWEGnTbN-24" value="motorCtrl: 0V-5V" style="edgeLabel;html=1;align=center;verticalAlign=middle;resizable=0;points=[];" connectable="0" vertex="1" parent="_ADm5sP4qU8iRWEGnTbN-23">
          <mxGeometry x="0.7251" relative="1" as="geometry">
            <mxPoint x="1" y="-2" as="offset" />
          </mxGeometry>
        </mxCell>
        <mxCell id="_ADm5sP4qU8iRWEGnTbN-25" value="motorCtrl:0V-5V" style="edgeLabel;html=1;align=center;verticalAlign=middle;resizable=0;points=[];" connectable="0" vertex="1" parent="_ADm5sP4qU8iRWEGnTbN-23">
          <mxGeometry x="-0.5547" relative="1" as="geometry">
            <mxPoint as="offset" />
          </mxGeometry>
        </mxCell>
        <mxCell id="_ADm5sP4qU8iRWEGnTbN-26" value="" style="html=1;shape=mxgraph.sysml.port;sysMLPortType=flowN;direction=south;" vertex="1" parent="_ADm5sP4qU8iRWEGnTbN-1">
          <mxGeometry x="743" y="572" width="20" height="20" as="geometry" />
        </mxCell>
        <mxCell id="_ADm5sP4qU8iRWEGnTbN-27" value="" style="html=1;shape=mxgraph.sysml.port;sysMLPortType=flowN;direction=south;" vertex="1" parent="_ADm5sP4qU8iRWEGnTbN-1">
          <mxGeometry x="949" y="572" width="20" height="20" as="geometry" />
        </mxCell>
        <mxCell id="_ADm5sP4qU8iRWEGnTbN-28" value="" style="endArrow=none;html=1;rounded=0;exitX=0.5;exitY=0;exitDx=0;exitDy=0;exitPerimeter=0;entryX=0.5;entryY=1;entryDx=0;entryDy=0;entryPerimeter=0;" edge="1" parent="_ADm5sP4qU8iRWEGnTbN-1" source="_ADm5sP4qU8iRWEGnTbN-26" target="_ADm5sP4qU8iRWEGnTbN-27">
          <mxGeometry width="50" height="50" relative="1" as="geometry">
            <mxPoint x="842" y="477" as="sourcePoint" />
            <mxPoint x="842" y="549" as="targetPoint" />
          </mxGeometry>
        </mxCell>
        <mxCell id="_ADm5sP4qU8iRWEGnTbN-29" value="lockBoltMovement : Force" style="edgeLabel;html=1;align=center;verticalAlign=middle;resizable=0;points=[];" connectable="0" vertex="1" parent="_ADm5sP4qU8iRWEGnTbN-28">
          <mxGeometry x="0.7251" relative="1" as="geometry">
            <mxPoint x="-11" y="20" as="offset" />
          </mxGeometry>
        </mxCell>
        <mxCell id="_ADm5sP4qU8iRWEGnTbN-30" value="lockBoltMovement : Force" style="edgeLabel;html=1;align=center;verticalAlign=middle;resizable=0;points=[];" connectable="0" vertex="1" parent="_ADm5sP4qU8iRWEGnTbN-28">
          <mxGeometry x="-0.5547" relative="1" as="geometry">
            <mxPoint x="-5" y="-24" as="offset" />
          </mxGeometry>
        </mxCell>
        <mxCell id="_ADm5sP4qU8iRWEGnTbN-31" value="" style="html=1;shape=mxgraph.sysml.port;sysMLPortType=flowN;direction=south;" vertex="1" parent="_ADm5sP4qU8iRWEGnTbN-1">
          <mxGeometry x="675" y="383.5" width="20" height="20" as="geometry" />
        </mxCell>
        <mxCell id="_ADm5sP4qU8iRWEGnTbN-34" value="" style="endArrow=none;html=1;rounded=0;exitX=1;exitY=0.5;exitDx=0;exitDy=0;exitPerimeter=0;entryX=0.5;entryY=0;entryDx=0;entryDy=0;entryPerimeter=0;" edge="1" parent="_ADm5sP4qU8iRWEGnTbN-1" target="_ADm5sP4qU8iRWEGnTbN-78">
          <mxGeometry width="50" height="50" relative="1" as="geometry">
            <mxPoint x="10" y="389.08" as="sourcePoint" />
            <mxPoint x="95" y="389.08" as="targetPoint" />
          </mxGeometry>
        </mxCell>
        <mxCell id="_ADm5sP4qU8iRWEGnTbN-35" value="display: Light" style="edgeLabel;html=1;align=center;verticalAlign=middle;resizable=0;points=[];" connectable="0" vertex="1" parent="_ADm5sP4qU8iRWEGnTbN-34">
          <mxGeometry x="0.7251" relative="1" as="geometry">
            <mxPoint x="19" y="21" as="offset" />
          </mxGeometry>
        </mxCell>
        <mxCell id="_ADm5sP4qU8iRWEGnTbN-36" value="touchScreenDisplay: Light" style="edgeLabel;html=1;align=center;verticalAlign=middle;resizable=0;points=[];" connectable="0" vertex="1" parent="_ADm5sP4qU8iRWEGnTbN-34">
          <mxGeometry x="-0.5547" relative="1" as="geometry">
            <mxPoint x="-25" y="-24" as="offset" />
          </mxGeometry>
        </mxCell>
        <mxCell id="_ADm5sP4qU8iRWEGnTbN-37" value="" style="endArrow=none;html=1;rounded=0;exitX=1;exitY=0.5;exitDx=0;exitDy=0;exitPerimeter=0;entryX=0;entryY=0.5;entryDx=0;entryDy=0;entryPerimeter=0;" edge="1" parent="_ADm5sP4qU8iRWEGnTbN-1" source="_ADm5sP4qU8iRWEGnTbN-80" target="_ADm5sP4qU8iRWEGnTbN-81">
          <mxGeometry width="50" height="50" relative="1" as="geometry">
            <mxPoint x="282" y="361.86" as="sourcePoint" />
            <mxPoint x="445.9999999999998" y="361.86" as="targetPoint" />
          </mxGeometry>
        </mxCell>
        <mxCell id="_ADm5sP4qU8iRWEGnTbN-38" value="screen: 15-pin display ribbon cable" style="edgeLabel;html=1;align=center;verticalAlign=middle;resizable=0;points=[];" connectable="0" vertex="1" parent="_ADm5sP4qU8iRWEGnTbN-37">
          <mxGeometry x="0.7251" relative="1" as="geometry">
            <mxPoint x="-63" y="8" as="offset" />
          </mxGeometry>
        </mxCell>
        <mxCell id="_ADm5sP4qU8iRWEGnTbN-39" value="rpi: 15-pin display ribbon cable" style="edgeLabel;html=1;align=center;verticalAlign=middle;resizable=0;points=[];" connectable="0" vertex="1" parent="_ADm5sP4qU8iRWEGnTbN-37">
          <mxGeometry x="-0.5547" relative="1" as="geometry">
            <mxPoint x="36" y="-12" as="offset" />
          </mxGeometry>
        </mxCell>
        <mxCell id="_ADm5sP4qU8iRWEGnTbN-40" value="" style="html=1;shape=mxgraph.sysml.port;sysMLPortType=flowN;direction=west;" vertex="1" parent="_ADm5sP4qU8iRWEGnTbN-1">
          <mxGeometry x="708" y="-7" width="20" height="20" as="geometry" />
        </mxCell>
        <mxCell id="_ADm5sP4qU8iRWEGnTbN-41" value="" style="endArrow=none;html=1;rounded=0;exitX=0.5;exitY=1;exitDx=0;exitDy=0;exitPerimeter=0;" edge="1" parent="_ADm5sP4qU8iRWEGnTbN-1" source="_ADm5sP4qU8iRWEGnTbN-6" target="_ADm5sP4qU8iRWEGnTbN-40">
          <mxGeometry width="50" height="50" relative="1" as="geometry">
            <mxPoint x="-512" y="660" as="sourcePoint" />
            <mxPoint x="-514" y="518" as="targetPoint" />
          </mxGeometry>
        </mxCell>
        <mxCell id="_ADm5sP4qU8iRWEGnTbN-42" value="kepadPress : Force" style="edgeLabel;html=1;align=center;verticalAlign=middle;resizable=0;points=[];" connectable="0" vertex="1" parent="_ADm5sP4qU8iRWEGnTbN-41">
          <mxGeometry x="-0.7661" relative="1" as="geometry">
            <mxPoint x="11" y="-10" as="offset" />
          </mxGeometry>
        </mxCell>
        <mxCell id="_ADm5sP4qU8iRWEGnTbN-43" value="keypadPress : Force" style="edgeLabel;html=1;align=center;verticalAlign=middle;resizable=0;points=[];" connectable="0" vertex="1" parent="_ADm5sP4qU8iRWEGnTbN-41">
          <mxGeometry x="0.5316" y="2" relative="1" as="geometry">
            <mxPoint x="1" y="-1" as="offset" />
          </mxGeometry>
        </mxCell>
        <mxCell id="_ADm5sP4qU8iRWEGnTbN-46" value="" style="endArrow=none;html=1;rounded=0;exitX=0.5;exitY=0;exitDx=0;exitDy=0;exitPerimeter=0;entryX=0.5;entryY=1;entryDx=0;entryDy=0;entryPerimeter=0;" edge="1" parent="_ADm5sP4qU8iRWEGnTbN-1" source="_ADm5sP4qU8iRWEGnTbN-52" target="_ADm5sP4qU8iRWEGnTbN-55">
          <mxGeometry width="50" height="50" relative="1" as="geometry">
            <mxPoint x="339" y="395" as="sourcePoint" />
            <mxPoint x="514" y="395" as="targetPoint" />
          </mxGeometry>
        </mxCell>
        <mxCell id="_ADm5sP4qU8iRWEGnTbN-47" value="power: 5V" style="edgeLabel;html=1;align=center;verticalAlign=middle;resizable=0;points=[];" connectable="0" vertex="1" parent="_ADm5sP4qU8iRWEGnTbN-46">
          <mxGeometry x="0.7251" relative="1" as="geometry">
            <mxPoint x="-7" y="9" as="offset" />
          </mxGeometry>
        </mxCell>
        <mxCell id="_ADm5sP4qU8iRWEGnTbN-48" value="powerOut: 5V" style="edgeLabel;html=1;align=center;verticalAlign=middle;resizable=0;points=[];" connectable="0" vertex="1" parent="_ADm5sP4qU8iRWEGnTbN-46">
          <mxGeometry x="-0.5547" relative="1" as="geometry">
            <mxPoint y="-10" as="offset" />
          </mxGeometry>
        </mxCell>
        <mxCell id="_ADm5sP4qU8iRWEGnTbN-49" value="" style="endArrow=none;html=1;rounded=0;exitX=0.5;exitY=0;exitDx=0;exitDy=0;exitPerimeter=0;entryX=0.5;entryY=1;entryDx=0;entryDy=0;entryPerimeter=0;" edge="1" parent="_ADm5sP4qU8iRWEGnTbN-1" source="_ADm5sP4qU8iRWEGnTbN-53" target="_ADm5sP4qU8iRWEGnTbN-54">
          <mxGeometry width="50" height="50" relative="1" as="geometry">
            <mxPoint x="337" y="425" as="sourcePoint" />
            <mxPoint x="516" y="425" as="targetPoint" />
          </mxGeometry>
        </mxCell>
        <mxCell id="_ADm5sP4qU8iRWEGnTbN-50" value="ground: 0V" style="edgeLabel;html=1;align=center;verticalAlign=middle;resizable=0;points=[];" connectable="0" vertex="1" parent="_ADm5sP4qU8iRWEGnTbN-49">
          <mxGeometry x="0.7251" relative="1" as="geometry">
            <mxPoint x="-8" y="9" as="offset" />
          </mxGeometry>
        </mxCell>
        <mxCell id="_ADm5sP4qU8iRWEGnTbN-51" value="groundOut: 0V" style="edgeLabel;html=1;align=center;verticalAlign=middle;resizable=0;points=[];" connectable="0" vertex="1" parent="_ADm5sP4qU8iRWEGnTbN-49">
          <mxGeometry x="-0.5547" relative="1" as="geometry">
            <mxPoint x="1" y="-9" as="offset" />
          </mxGeometry>
        </mxCell>
        <mxCell id="_ADm5sP4qU8iRWEGnTbN-52" value="" style="html=1;shape=mxgraph.sysml.port;sysMLPortType=flowN;direction=south;" vertex="1" parent="_ADm5sP4qU8iRWEGnTbN-1">
          <mxGeometry x="244" y="390" width="20" height="20" as="geometry" />
        </mxCell>
        <mxCell id="_ADm5sP4qU8iRWEGnTbN-53" value="" style="html=1;shape=mxgraph.sysml.port;sysMLPortType=flowN;direction=south;" vertex="1" parent="_ADm5sP4qU8iRWEGnTbN-1">
          <mxGeometry x="244" y="430" width="20" height="20" as="geometry" />
        </mxCell>
        <mxCell id="_ADm5sP4qU8iRWEGnTbN-54" value="" style="html=1;shape=mxgraph.sysml.port;sysMLPortType=flowN;direction=south;" vertex="1" parent="_ADm5sP4qU8iRWEGnTbN-1">
          <mxGeometry x="452" y="430" width="20" height="20" as="geometry" />
        </mxCell>
        <mxCell id="_ADm5sP4qU8iRWEGnTbN-55" value="" style="html=1;shape=mxgraph.sysml.port;sysMLPortType=flowN;direction=south;" vertex="1" parent="_ADm5sP4qU8iRWEGnTbN-1">
          <mxGeometry x="452" y="390" width="20" height="20" as="geometry" />
        </mxCell>
        <mxCell id="_ADm5sP4qU8iRWEGnTbN-56" value="" style="html=1;shape=mxgraph.sysml.port;sysMLPortType=flowN;direction=south;" vertex="1" parent="_ADm5sP4qU8iRWEGnTbN-1">
          <mxGeometry x="738" y="191.5" width="20" height="20" as="geometry" />
        </mxCell>
        <mxCell id="_ADm5sP4qU8iRWEGnTbN-57" value="" style="html=1;shape=mxgraph.sysml.port;sysMLPortType=flowN;direction=south;" vertex="1" parent="_ADm5sP4qU8iRWEGnTbN-1">
          <mxGeometry x="949" y="191.5" width="20" height="20" as="geometry" />
        </mxCell>
        <mxCell id="_ADm5sP4qU8iRWEGnTbN-58" value="" style="endArrow=none;html=1;rounded=0;exitX=0.5;exitY=0;exitDx=0;exitDy=0;exitPerimeter=0;entryX=0.5;entryY=1;entryDx=0;entryDy=0;entryPerimeter=0;" edge="1" parent="_ADm5sP4qU8iRWEGnTbN-1" source="_ADm5sP4qU8iRWEGnTbN-56" target="_ADm5sP4qU8iRWEGnTbN-57">
          <mxGeometry width="50" height="50" relative="1" as="geometry">
            <mxPoint x="763" y="179" as="sourcePoint" />
            <mxPoint x="922" y="179" as="targetPoint" />
          </mxGeometry>
        </mxCell>
        <mxCell id="_ADm5sP4qU8iRWEGnTbN-59" value="digit[8]:0V-5V" style="edgeLabel;html=1;align=center;verticalAlign=middle;resizable=0;points=[];" connectable="0" vertex="1" parent="_ADm5sP4qU8iRWEGnTbN-58">
          <mxGeometry x="0.7251" relative="1" as="geometry">
            <mxPoint x="-15" y="23" as="offset" />
          </mxGeometry>
        </mxCell>
        <mxCell id="_ADm5sP4qU8iRWEGnTbN-60" value="digit[8]: 0V-5V" style="edgeLabel;html=1;align=center;verticalAlign=middle;resizable=0;points=[];" connectable="0" vertex="1" parent="_ADm5sP4qU8iRWEGnTbN-58">
          <mxGeometry x="-0.5547" relative="1" as="geometry">
            <mxPoint x="-5" y="-24" as="offset" />
          </mxGeometry>
        </mxCell>
        <mxCell id="_ADm5sP4qU8iRWEGnTbN-61" value="&lt;b&gt;button : Button&lt;/b&gt;" style="rounded=0;whiteSpace=wrap;html=1;" vertex="1" parent="_ADm5sP4qU8iRWEGnTbN-1">
          <mxGeometry x="290" y="150" width="162" height="103" as="geometry" />
        </mxCell>
        <mxCell id="_ADm5sP4qU8iRWEGnTbN-62" value="" style="endArrow=none;html=1;rounded=0;entryX=0.5;entryY=0;entryDx=0;entryDy=0;entryPerimeter=0;exitX=0.5;exitY=1;exitDx=0;exitDy=0;exitPerimeter=0;" edge="1" parent="_ADm5sP4qU8iRWEGnTbN-1" source="_ADm5sP4qU8iRWEGnTbN-65" target="_ADm5sP4qU8iRWEGnTbN-66">
          <mxGeometry width="50" height="50" relative="1" as="geometry">
            <mxPoint x="228" y="122" as="sourcePoint" />
            <mxPoint x="228" y="13" as="targetPoint" />
          </mxGeometry>
        </mxCell>
        <mxCell id="_ADm5sP4qU8iRWEGnTbN-63" value="pressButton: Force" style="edgeLabel;html=1;align=center;verticalAlign=middle;resizable=0;points=[];" connectable="0" vertex="1" parent="_ADm5sP4qU8iRWEGnTbN-62">
          <mxGeometry x="-0.7661" relative="1" as="geometry">
            <mxPoint x="11" y="-10" as="offset" />
          </mxGeometry>
        </mxCell>
        <mxCell id="_ADm5sP4qU8iRWEGnTbN-64" value="pressButton: Force" style="edgeLabel;html=1;align=center;verticalAlign=middle;resizable=0;points=[];" connectable="0" vertex="1" parent="_ADm5sP4qU8iRWEGnTbN-62">
          <mxGeometry x="0.7602" y="1" relative="1" as="geometry">
            <mxPoint as="offset" />
          </mxGeometry>
        </mxCell>
        <mxCell id="_ADm5sP4qU8iRWEGnTbN-65" value="" style="html=1;shape=mxgraph.sysml.port;sysMLPortType=flowN;direction=west;" vertex="1" parent="_ADm5sP4qU8iRWEGnTbN-1">
          <mxGeometry x="364" y="135" width="20" height="20" as="geometry" />
        </mxCell>
        <mxCell id="_ADm5sP4qU8iRWEGnTbN-66" value="" style="html=1;shape=mxgraph.sysml.port;sysMLPortType=flowN;direction=west;" vertex="1" parent="_ADm5sP4qU8iRWEGnTbN-1">
          <mxGeometry x="364" y="-7" width="20" height="20" as="geometry" />
        </mxCell>
        <mxCell id="_ADm5sP4qU8iRWEGnTbN-67" value="" style="html=1;shape=mxgraph.sysml.port;sysMLPortType=flowN;direction=west;" vertex="1" parent="_ADm5sP4qU8iRWEGnTbN-1">
          <mxGeometry x="488" y="332" width="20" height="20" as="geometry" />
        </mxCell>
        <mxCell id="_ADm5sP4qU8iRWEGnTbN-68" value="" style="html=1;shape=mxgraph.sysml.port;sysMLPortType=flowN;direction=west;" vertex="1" parent="_ADm5sP4qU8iRWEGnTbN-1">
          <mxGeometry x="426" y="242" width="20" height="20" as="geometry" />
        </mxCell>
        <mxCell id="_ADm5sP4qU8iRWEGnTbN-79" value="" style="edgeStyle=orthogonalEdgeStyle;rounded=0;orthogonalLoop=1;jettySize=auto;html=1;endArrow=none;endFill=0;" edge="1" parent="_ADm5sP4qU8iRWEGnTbN-1" source="_ADm5sP4qU8iRWEGnTbN-77" target="_ADm5sP4qU8iRWEGnTbN-78">
          <mxGeometry relative="1" as="geometry" />
        </mxCell>
        <mxCell id="_ADm5sP4qU8iRWEGnTbN-77" value="" style="html=1;shape=mxgraph.sysml.port;sysMLPortType=flowN;direction=north;" vertex="1" parent="_ADm5sP4qU8iRWEGnTbN-1">
          <mxGeometry x="-10" y="379.5" width="20" height="20" as="geometry" />
        </mxCell>
        <mxCell id="_ADm5sP4qU8iRWEGnTbN-78" value="" style="html=1;shape=mxgraph.sysml.port;sysMLPortType=flowN;direction=north;" vertex="1" parent="_ADm5sP4qU8iRWEGnTbN-1">
          <mxGeometry x="82" y="379.5" width="20" height="20" as="geometry" />
        </mxCell>
        <mxCell id="_ADm5sP4qU8iRWEGnTbN-80" value="" style="html=1;shape=mxgraph.sysml.port;sysMLPortType=doubleH;" vertex="1" parent="_ADm5sP4qU8iRWEGnTbN-1">
          <mxGeometry x="244" y="352" width="20" height="20" as="geometry" />
        </mxCell>
        <mxCell id="_ADm5sP4qU8iRWEGnTbN-81" value="" style="html=1;shape=mxgraph.sysml.port;sysMLPortType=doubleH;" vertex="1" parent="_ADm5sP4qU8iRWEGnTbN-1">
          <mxGeometry x="452" y="352" width="20" height="20" as="geometry" />
        </mxCell>
        <mxCell id="_ADm5sP4qU8iRWEGnTbN-72" value="" style="html=1;shape=mxgraph.sysml.port;sysMLPortType=flowN;direction=south;" vertex="1" parent="1">
          <mxGeometry x="2047" y="882.5" width="20" height="20" as="geometry" />
        </mxCell>
        <mxCell id="_ADm5sP4qU8iRWEGnTbN-73" value="" style="endArrow=none;html=1;rounded=0;exitX=0.5;exitY=0;exitDx=0;exitDy=0;exitPerimeter=0;entryX=0.5;entryY=1;entryDx=0;entryDy=0;entryPerimeter=0;" edge="1" parent="1" source="_ADm5sP4qU8iRWEGnTbN-31" target="_ADm5sP4qU8iRWEGnTbN-72">
          <mxGeometry width="50" height="50" relative="1" as="geometry">
            <mxPoint x="1876" y="925" as="sourcePoint" />
            <mxPoint x="2038" y="925" as="targetPoint" />
          </mxGeometry>
        </mxCell>
        <mxCell id="_ADm5sP4qU8iRWEGnTbN-74" value="doorUnlockOverridePress : Force" style="edgeLabel;html=1;align=center;verticalAlign=middle;resizable=0;points=[];" connectable="0" vertex="1" parent="_ADm5sP4qU8iRWEGnTbN-73">
          <mxGeometry x="0.7251" relative="1" as="geometry">
            <mxPoint x="-35" y="24" as="offset" />
          </mxGeometry>
        </mxCell>
        <mxCell id="_ADm5sP4qU8iRWEGnTbN-75" value="doorUnlockOverridePress : Force" style="edgeLabel;html=1;align=center;verticalAlign=middle;resizable=0;points=[];" connectable="0" vertex="1" parent="_ADm5sP4qU8iRWEGnTbN-73">
          <mxGeometry x="-0.5547" relative="1" as="geometry">
            <mxPoint x="-5" y="-24" as="offset" />
          </mxGeometry>
        </mxCell>
      </root>
    </mxGraphModel>
  </diagram>
</mxfile>
